<?xml version="1.0" standalone="no"?>
<!DOCTYPE svg PUBLIC "-//W3C//DTD SVG 20010904//EN"
 "http://www.w3.org/TR/2001/REC-SVG-20010904/DTD/svg10.dtd">
<svg version="1.0" xmlns="http://www.w3.org/2000/svg"
 width="512.000000pt" height="512.000000pt" viewBox="0 0 512.000000 512.000000"
 preserveAspectRatio="xMidYMid meet">

<g transform="translate(0.000000,512.000000) scale(0.100000,-0.100000)"
fill="#000000" stroke="none">
<path d="M2880 5084 c-314 -87 -551 -186 -715 -297 l-38 -26 -29 20 c-49 36
-86 35 -180 -5 -106 -43 -172 -83 -262 -155 -73 -58 -177 -174 -223 -247 -27
-42 -27 -42 -95 -46 -60 -3 -71 -7 -101 -36 -18 -18 -41 -32 -50 -32 -57 0
-252 -135 -359 -248 -61 -65 -188 -244 -188 -265 0 -5 -21 -6 -49 -2 -56 8
-121 -15 -158 -56 -26 -29 -110 -195 -151 -299 -134 -338 -193 -742 -146 -990
16 -86 56 -206 91 -274 l20 -40 -27 -23 c-73 -61 -76 -132 -14 -324 73 -221
228 -513 355 -668 l28 -34 -148 -153 c-118 -121 -169 -182 -251 -304 -57 -84
-109 -174 -117 -199 -30 -96 1 -203 83 -285 66 -67 121 -90 209 -91 122 0 196
52 260 185 60 122 140 233 249 347 l103 107 89 -65 c219 -159 464 -280 705
-348 120 -33 176 -25 234 37 l29 31 55 -28 c75 -38 167 -67 276 -87 173 -32
489 -1 739 71 223 65 509 194 551 249 31 40 46 107 34 149 -5 18 -5 33 0 35
21 7 131 77 180 115 81 62 184 170 239 251 55 80 102 164 102 184 0 7 15 31
33 54 27 34 32 49 34 100 l1 60 74 55 c196 147 349 350 398 532 10 40 9 48
-14 93 l-26 49 42 61 c97 144 235 494 298 760 21 86 22 101 11 140 -19 63 -74
113 -142 128 l-56 13 42 91 c89 188 141 391 154 604 12 175 -7 236 -85 277
l-40 21 20 45 c28 63 34 193 12 261 -56 175 -234 359 -413 429 -81 32 -197 31
-271 -1 -29 -12 -54 -21 -55 -19 -2 2 -15 22 -29 45 -41 64 -82 79 -213 78
-227 -2 -491 -67 -698 -171 -27 -13 -51 -22 -54 -19 -3 2 -9 24 -14 48 -19 84
-97 148 -179 147 -19 0 -91 -16 -160 -35z m174 -161 c27 -138 46 -335 46 -485
0 -126 15 -117 -148 -87 -221 40 -519 137 -697 226 l-49 25 29 25 c117 96 383
209 687 293 129 35 125 35 132 3z m1001 -43 c0 -36 -4 -190 -9 -342 l-9 -278
-131 0 c-139 0 -353 13 -527 31 l-106 11 -6 212 c-8 245 -22 214 128 287 192
92 431 150 605 145 l55 -1 0 -65z m484 -53 c79 -40 176 -133 226 -218 67 -113
58 -223 -25 -292 -45 -38 -82 -44 -317 -52 l-213 -6 0 113 c1 62 5 170 9 240
7 114 11 132 34 166 43 61 116 95 187 85 19 -3 64 -19 99 -36z m-2549 -239 c1
-18 18 -256 39 -528 21 -272 37 -497 35 -499 -2 -2 -29 11 -61 29 -230 130
-400 322 -474 539 l-19 54 44 66 c101 151 220 264 345 330 42 22 79 41 84 41
4 0 7 -15 7 -32z m296 -209 c212 -89 494 -172 698 -206 l109 -18 -6 -185 c-4
-102 -7 -290 -7 -418 l0 -234 -77 7 c-212 18 -470 67 -663 124 l-95 29 -32
413 c-17 228 -33 440 -36 472 -3 31 -2 57 3 57 4 0 52 -19 106 -41z m-922
-296 c83 -265 308 -512 610 -669 122 -64 109 -36 126 -269 14 -194 36 -388 61
-548 11 -71 18 -131 16 -134 -7 -7 -238 59 -362 104 -193 68 -475 209 -512
255 -16 20 -21 268 -12 626 11 435 29 692 48 692 4 0 15 -26 25 -57z m2061 32
c83 -8 252 -18 377 -22 l226 -6 6 -101 c3 -56 8 -169 12 -253 3 -84 12 -210
19 -280 7 -70 11 -131 9 -134 -6 -10 -623 -22 -729 -14 l-95 7 0 227 c0 265
11 591 19 591 3 0 74 -7 156 -15z m1467 -95 c-9 -226 -75 -462 -184 -657 l-29
-51 -212 5 c-117 3 -213 6 -214 7 -1 1 -6 37 -12 81 -17 128 -31 375 -31 536
l0 149 93 1 c50 1 175 5 277 9 102 4 214 6 250 6 l65 -1 -3 -85z m-3761 -194
c-6 -100 -11 -331 -11 -513 0 -193 -4 -333 -9 -333 -17 0 -142 143 -192 220
-56 84 -128 228 -154 309 -21 66 -15 94 49 201 63 107 145 201 239 276 75 59
82 63 85 43 2 -12 -1 -104 -7 -203z m-531 -356 c88 -266 264 -519 488 -702 31
-26 32 -30 32 -100 1 -256 49 -702 105 -964 14 -66 25 -124 25 -131 0 -29
-341 132 -490 232 -205 137 -318 260 -395 428 -61 136 -70 184 -69 372 0 273
55 519 175 786 41 90 89 182 94 177 2 -2 17 -46 35 -98z m1762 -206 c173 -48
413 -89 653 -112 l80 -7 7 -85 c18 -219 66 -493 118 -674 11 -38 18 -71 16
-73 -14 -15 -770 76 -857 102 -18 6 -43 145 -78 425 -17 130 -41 392 -41 437
0 17 -4 17 102 -13z m1763 -246 c46 -247 110 -464 197 -667 27 -63 46 -116 43
-119 -5 -5 -848 53 -911 63 -29 5 -31 9 -62 118 -61 213 -103 440 -117 632
l-7 90 223 -3 c123 -1 310 1 414 5 105 5 192 7 194 6 2 -1 14 -57 26 -125z
m493 122 c160 -17 284 -41 279 -54 -3 -7 -19 -63 -35 -126 -68 -255 -165 -491
-258 -631 -26 -39 -50 -67 -55 -62 -20 20 -113 244 -159 381 -45 138 -110 416
-110 475 l0 27 120 0 c67 0 164 -5 218 -10z m-2818 -747 c102 -34 237 -74 301
-90 l116 -28 46 -170 c61 -231 124 -401 215 -585 42 -85 79 -159 81 -164 9
-21 -421 12 -664 50 -122 19 -356 68 -409 86 -38 12 -41 16 -58 83 -66 258
-111 576 -133 942 l-6 101 163 -82 c112 -56 222 -101 348 -143z m796 -188
c144 -21 516 -59 664 -67 l45 -3 46 -91 c155 -305 383 -519 665 -622 44 -17
72 -32 65 -36 -36 -23 -521 -46 -966 -46 l-340 0 -52 84 c-64 101 -149 277
-198 409 -36 99 -115 361 -115 385 0 15 -12 16 186 -13z m1429 -125 c286 -22
526 -40 532 -40 9 0 6 -15 -9 -47 -66 -141 -195 -284 -342 -381 l-78 -51 -63
24 c-220 83 -400 245 -539 488 -15 26 -25 47 -24 47 2 0 237 -18 523 -40z
m-3476 -334 c165 -127 421 -263 639 -339 l123 -43 33 -95 c122 -346 263 -587
473 -810 36 -38 63 -72 60 -75 -3 -3 -56 11 -118 31 -663 218 -1171 725 -1393
1389 -20 58 -36 113 -36 122 0 10 32 -14 81 -60 45 -42 107 -96 138 -120z
m1161 -482 c215 -42 543 -78 824 -90 l160 -7 25 -31 c93 -113 243 -248 357
-321 89 -57 225 -122 339 -161 126 -44 127 -40 -25 -111 -313 -148 -771 -235
-1005 -190 -169 32 -333 117 -454 237 -111 109 -247 312 -328 487 -28 63 -93
222 -93 229 0 1 28 -4 63 -13 34 -8 96 -21 137 -29z m2274 -94 c-26 -44 -122
-151 -179 -200 -63 -55 -143 -107 -224 -145 l-63 -29 -66 23 c-166 58 -345
166 -466 282 l-70 66 450 7 c377 6 525 12 622 24 10 2 8 -6 -4 -28z m-3211
-344 l74 -74 -69 -69 c-130 -128 -229 -262 -296 -402 -59 -121 -126 -142 -204
-63 -57 56 -59 91 -11 169 83 137 174 253 297 380 70 73 130 133 132 133 1 0
36 -33 77 -74z"/>
<path d="M2668 4735 c-61 -34 -55 -137 11 -164 90 -38 172 71 109 144 -28 32
-83 41 -120 20z"/>
<path d="M3599 4722 c-44 -40 -44 -95 1 -135 27 -24 39 -28 69 -23 79 12 108
101 52 157 -39 38 -80 39 -122 1z"/>
<path d="M4469 4651 c-47 -47 -34 -117 27 -146 43 -20 77 -11 110 28 75 89
-55 200 -137 118z"/>
<path d="M1755 4341 c-74 -21 -97 -93 -49 -150 33 -40 89 -43 131 -7 69 59 5
181 -82 157z"/>
<path d="M2667 3929 c-27 -16 -50 -68 -42 -98 28 -111 185 -95 185 19 0 65
-86 112 -143 79z"/>
<path d="M1605 3261 c-33 -14 -56 -47 -57 -80 -3 -88 85 -131 151 -75 77 64
-2 194 -94 155z"/>
<path d="M3729 3911 c-50 -51 -32 -129 35 -151 79 -26 149 56 112 129 -31 59
-99 70 -147 22z"/>
<path d="M4563 3796 c-62 -28 -74 -107 -22 -150 52 -44 126 -27 147 33 28 80
-47 151 -125 117z"/>
<path d="M566 2635 c-19 -17 -26 -34 -26 -60 0 -49 15 -74 56 -91 29 -12 39
-12 68 0 40 17 56 42 56 89 0 77 -96 116 -154 62z"/>
<path d="M2719 2901 c-49 -49 -30 -129 34 -150 80 -27 151 54 113 128 -31 59
-99 70 -147 22z"/>
<path d="M3739 2847 c-45 -34 -50 -92 -13 -136 54 -64 159 -26 159 57 0 57
-34 92 -89 92 -23 0 -48 -6 -57 -13z"/>
<path d="M4536 2834 c-56 -56 -17 -154 61 -154 47 0 72 16 89 56 12 29 12 39
0 68 -26 62 -102 77 -150 30z"/>
<path d="M1804 1980 c-84 -34 -64 -162 27 -176 30 -5 42 -1 69 23 45 40 45 95
1 135 -32 29 -59 34 -97 18z"/>
<path d="M3083 1776 c-37 -17 -53 -43 -53 -88 1 -78 97 -118 153 -63 30 31 38
64 22 102 -22 53 -69 72 -122 49z"/>
<path d="M4143 1905 c-47 -33 -50 -108 -7 -147 43 -38 118 -27 144 21 45 84
-60 180 -137 126z"/>
<path d="M969 1151 c-50 -51 -32 -129 35 -151 74 -24 145 50 116 120 -27 64
-102 80 -151 31z"/>
<path d="M2474 766 c-88 -39 -55 -176 43 -176 94 0 124 134 38 174 -39 19 -41
19 -81 2z"/>
</g>
</svg>
